<?xml version="1.0" standalone="no"?>
<!DOCTYPE svg PUBLIC "-//W3C//DTD SVG 20010904//EN"
 "http://www.w3.org/TR/2001/REC-SVG-20010904/DTD/svg10.dtd">
<svg version="1.0" xmlns="http://www.w3.org/2000/svg"
 width="500.000000pt" height="500.000000pt" viewBox="0 0 500.000000 500.000000"
 preserveAspectRatio="xMidYMid meet">
<metadata>
Created by potrace 1.11, written by Peter Selinger 2001-2013
</metadata>
<g transform="translate(0.000000,500.000000) scale(0.100000,-0.100000)"
fill="#000000" stroke="none">
<path d="M2340 3650 c-8 -5 -25 -10 -38 -10 -12 0 -25 -7 -28 -15 -4 -9 -19
-15 -38 -15 -17 0 -39 -7 -49 -14 -15 -12 -11 -16 42 -35 32 -12 64 -28 71
-36 15 -18 3 -19 -36 -5 -16 7 -31 7 -36 2 -6 -6 4 -13 24 -18 56 -14 -87 -18
-151 -4 -51 11 -53 13 -33 24 13 7 20 15 16 19 -3 3 6 5 21 4 20 -1 28 3 31
16 2 16 -2 18 -39 11 -63 -10 -94 -23 -78 -33 9 -6 10 -11 3 -15 -6 -4 -9 -13
-6 -20 3 -9 -3 -17 -16 -21 -17 -5 -19 -10 -9 -21 7 -9 8 -14 1 -14 -12 0 -92
-75 -92 -85 0 -4 11 -5 25 -3 17 4 25 1 25 -8 0 -8 11 -16 25 -20 19 -5 24
-11 20 -24 -4 -13 0 -19 12 -22 10 -2 18 -10 18 -18 1 -8 5 -32 9 -53 8 -36
10 -38 35 -31 14 4 43 7 64 6 22 -1 48 3 59 9 16 9 20 7 25 -10 6 -23 24 -27
52 -11 14 7 23 5 36 -10 10 -11 24 -20 30 -20 7 0 24 -9 38 -20 14 -11 32 -20
40 -20 8 0 26 9 40 20 14 11 32 20 40 20 9 0 24 12 35 28 17 22 23 25 33 15
17 -17 46 -17 56 0 5 8 35 12 93 12 83 0 85 1 88 25 2 14 8 30 14 37 6 8 6 19
-2 32 -10 19 -8 21 20 21 29 0 40 13 20 25 -18 11 -11 25 13 25 13 0 27 4 33
9 5 5 20 11 33 13 37 5 36 25 -1 44 -18 9 -37 23 -41 30 -4 8 -26 17 -47 20
-45 7 -48 11 -23 29 16 12 13 14 -22 21 l-40 7 28 12 27 11 -24 23 c-20 19
-39 24 -108 28 -88 5 -158 15 -223 32 -50 13 -96 14 -115 1z m60 -10 c0 -5 -7
-10 -16 -10 -8 0 -12 5 -9 10 3 6 10 10 16 10 5 0 9 -4 9 -10z m80 -19 c0 -10
-9 -30 -20 -44 -11 -14 -20 -30 -20 -36 0 -6 -7 -11 -15 -11 -8 0 -15 9 -15
20 0 24 -18 26 -35 3 -11 -15 -15 -15 -43 8 -65 52 -38 80 59 60 29 -6 54 -9
57 -6 3 3 -3 5 -14 5 -16 0 -17 2 -4 10 25 16 50 12 50 -9z m217 -21 c13 0 22
-4 18 -9 -3 -6 3 -14 12 -20 20 -11 23 -9 -57 -35 -25 -8 -70 -18 -100 -21
l-55 -6 30 17 c33 19 19 32 -14 14 -28 -14 -27 -2 2 23 34 30 79 47 111 42 16
-3 39 -5 53 -5z m83 -121 c49 -11 69 -29 30 -29 -11 0 -20 -3 -20 -8 0 -4 9
-13 20 -20 11 -7 20 -16 20 -20 0 -10 -129 9 -230 34 l-75 19 50 6 c38 4 43 7
20 9 -28 3 -27 3 10 10 63 11 120 11 175 -1z m-496 -17 c3 -5 -14 -9 -37 -11
-23 -1 -45 -5 -49 -10 -5 -4 9 -5 30 -3 52 6 40 -2 -57 -38 -152 -56 -189 -56
-139 -3 l21 23 -21 0 c-23 0 -29 14 -12 25 32 20 253 34 264 17z m586 -32 c8
-5 11 -10 5 -10 -5 0 -17 5 -25 10 -8 5 -10 10 -5 10 6 0 17 -5 25 -10z m-284
-27 c27 -9 65 -26 84 -37 19 -12 44 -26 54 -32 27 -14 31 -30 9 -36 -25 -6
-43 1 -43 17 0 17 -17 28 -30 20 -8 -5 -8 -11 -1 -19 6 -7 8 -16 4 -19 -3 -4
-1 -13 6 -21 9 -11 8 -15 -6 -20 -15 -6 -113 50 -113 65 0 3 -17 25 -37 49
l-38 45 47 -28 c50 -29 58 -32 58 -18 0 5 -14 14 -30 21 -34 14 -48 30 -27 30
7 0 36 -8 63 -17z m-591 -3 c-3 -5 -14 -10 -23 -9 -14 0 -13 2 3 9 27 11 27
11 20 0z m281 -5 c-11 -8 -23 -15 -28 -15 -4 0 -8 -4 -8 -10 0 -15 28 -12 56
7 26 17 26 16 -5 -35 -43 -69 -98 -117 -117 -101 -8 6 -13 19 -12 28 3 13 -5
15 -39 13 -25 -2 -43 1 -43 7 0 16 60 56 123 81 31 12 60 26 63 31 3 5 11 9
17 9 7 0 3 -7 -7 -15z m128 -54 c9 -12 8 -13 -4 -6 -12 6 -12 5 -3 -5 15 -16
33 -4 33 22 0 17 2 19 16 7 46 -38 74 -159 36 -159 -10 0 -28 7 -40 16 -22 15
-42 12 -42 -7 0 -5 7 -9 16 -9 9 0 14 -5 12 -12 -6 -18 -28 -22 -28 -5 0 19
-22 27 -51 20 -21 -6 -22 -4 -16 45 7 56 47 147 55 122 3 -8 10 -21 16 -29z
m-288 -96 c-21 -16 -32 -13 -21 4 3 6 14 11 23 11 15 -1 15 -2 -2 -15z"/>
<path d="M2668 3583 c6 -2 18 -2 25 0 6 3 1 5 -13 5 -14 0 -19 -2 -12 -5z"/>
<path d="M2658 3563 c7 -3 16 -2 19 1 4 3 -2 6 -13 5 -11 0 -14 -3 -6 -6z"/>
<path d="M2745 3460 c3 -5 13 -10 21 -10 8 0 12 5 9 10 -3 6 -13 10 -21 10 -8
0 -12 -4 -9 -10z"/>
<path d="M2758 3423 c7 -3 16 -2 19 1 4 3 -2 6 -13 5 -11 0 -14 -3 -6 -6z"/>
<path d="M2065 3440 c-3 -5 -2 -10 4 -10 5 0 13 5 16 10 3 6 2 10 -4 10 -5 0
-13 -4 -16 -10z"/>
<path d="M2060 3400 c-13 -8 -12 -10 3 -10 9 0 17 5 17 10 0 12 -1 12 -20 0z"/>
<path d="M2612 3298 c3 -7 13 -15 22 -16 12 -3 17 1 14 10 -3 7 -13 15 -22 16
-12 3 -17 -1 -14 -10z"/>
<path d="M2141 3321 c-7 -5 -9 -11 -4 -14 5 -3 15 -2 22 2 7 5 9 11 4 14 -5 3
-15 2 -22 -2z"/>
<path d="M2180 3290 c0 -5 7 -10 15 -10 8 0 15 5 15 10 0 6 -7 10 -15 10 -8 0
-15 -4 -15 -10z"/>
<path d="M2425 3259 c-10 -15 1 -23 20 -15 9 3 13 10 10 16 -8 13 -22 13 -30
-1z"/>
<path d="M2350 3245 c0 -8 9 -15 20 -15 11 0 20 7 20 15 0 8 -9 15 -20 15 -11
0 -20 -7 -20 -15z"/>
<path d="M2165 3550 c3 -5 12 -7 20 -3 21 7 19 13 -6 13 -11 0 -18 -4 -14 -10z"/>
<path d="M2128 3523 c7 -3 16 -2 19 1 4 3 -2 6 -13 5 -11 0 -14 -3 -6 -6z"/>
<path d="M3170 3474 c0 -8 26 -29 55 -46 20 -11 20 -11 0 11 -22 25 -55 46
-55 35z"/>
<path d="M1665 3380 c-10 -11 -16 -22 -13 -25 3 -3 13 4 23 15 10 11 16 22 13
25 -3 3 -13 -4 -23 -15z"/>
<path d="M3298 3254 c-9 -8 1 -32 25 -66 11 -14 20 -39 20 -54 0 -15 10 -50
23 -78 18 -41 23 -46 23 -26 1 14 -6 53 -15 85 -9 33 -17 67 -18 76 0 19 -50
72 -58 63z"/>
<path d="M1567 3183 c-4 -3 -7 -13 -7 -22 1 -13 3 -13 11 2 11 19 8 33 -4 20z"/>
<path d="M3191 3087 c-12 -15 -1 -68 19 -92 8 -10 7 -27 -6 -64 -17 -54 -35
-74 -43 -50 -8 26 -69 79 -90 79 -25 0 -41 -27 -31 -54 28 -75 44 -106 58
-111 32 -12 -8 -23 -50 -13 -22 4 -66 10 -98 11 -52 2 -63 6 -95 37 -31 30
-38 33 -62 24 -20 -7 -29 -17 -31 -38 -4 -33 10 -46 53 -46 l29 0 -51 -51
c-28 -28 -70 -86 -94 -130 -84 -153 -100 -170 -117 -121 -7 21 -6 35 4 53 7
13 16 42 20 63 8 47 -12 68 -56 60 -24 -5 -31 0 -56 38 -21 31 -38 44 -57 46
-25 3 -30 -2 -50 -47 -20 -49 -23 -51 -59 -51 -37 0 -38 -1 -38 -34 0 -18 7
-50 15 -69 34 -81 6 -76 -60 9 -27 36 -77 94 -110 129 -55 59 -63 64 -98 62
-20 -2 -38 -6 -38 -11 0 -9 7 -14 77 -53 37 -20 72 -53 105 -98 15 -21 6 -15
-100 72 -46 38 -55 41 -79 32 -41 -16 -53 -30 -46 -53 13 -46 64 -62 64 -21 0
36 20 31 83 -20 52 -42 117 -125 117 -150 0 -6 -17 -27 -37 -46 -21 -20 -46
-46 -56 -58 -32 -40 -10 -34 35 8 l43 42 18 -22 c22 -28 22 -39 -2 -39 -27 0
-33 -14 -16 -36 19 -25 19 -44 -1 -44 -11 0 -14 -8 -12 -32 2 -28 -1 -34 -19
-36 -18 -3 -23 -10 -23 -33 0 -26 -3 -29 -30 -29 -19 0 -30 -5 -29 -12 3 -29
-2 -38 -26 -38 -13 0 -28 -8 -34 -17 -9 -16 -13 -16 -31 -5 -19 11 -24 11 -34
-4 -9 -12 -20 -15 -39 -10 -31 7 -34 -2 -12 -44 10 -19 20 -27 30 -24 8 4 13
10 10 14 -8 13 18 28 80 44 54 14 62 14 83 0 42 -27 69 0 36 37 -17 19 -14 25
49 91 15 16 27 35 27 42 0 8 7 19 15 26 8 7 15 27 15 44 0 18 5 37 12 44 9 9
9 20 -1 48 -15 42 -1 70 19 35 16 -30 82 -70 125 -74 20 -3 41 -9 47 -15 16
-16 23 -108 9 -116 -15 -9 -14 -43 1 -48 23 -8 -1 -36 -37 -42 -31 -6 -40 -14
-56 -49 -10 -23 -19 -55 -19 -71 0 -28 1 -28 40 -22 35 6 41 3 57 -21 35 -55
69 -58 110 -8 21 25 39 36 67 39 50 6 65 20 48 46 -6 11 -12 26 -12 34 0 26
-63 66 -104 66 -37 0 -37 0 -31 34 4 20 2 36 -4 40 -6 4 -11 34 -11 67 0 57 1
60 35 80 19 11 37 29 40 40 4 10 13 19 21 19 10 0 14 -13 14 -45 0 -31 5 -47
15 -51 8 -4 15 -14 15 -24 0 -28 11 -50 25 -50 7 0 22 -16 34 -35 11 -19 25
-35 30 -35 5 0 12 -8 15 -17 3 -10 19 -26 36 -35 27 -15 29 -20 20 -43 -13
-34 8 -43 45 -19 23 15 32 16 61 5 19 -7 43 -9 54 -6 12 4 26 0 36 -10 23 -22
34 -10 95 103 28 53 62 110 75 125 13 16 24 38 24 50 0 12 14 62 31 111 20 60
27 92 20 99 -7 7 -7 16 0 29 6 11 9 21 7 24 -2 2 -23 -34 -46 -80 -62 -125
-111 -182 -188 -218 -93 -43 -134 -36 -203 37 -29 30 -68 68 -88 84 -30 25
-34 33 -29 59 14 62 118 197 175 226 45 24 61 21 61 -13 0 -41 23 -58 56 -40
14 7 30 22 36 32 13 25 2 83 -17 91 -24 9 -17 26 10 24 33 -3 75 -47 84 -90 8
-35 0 -73 -15 -73 -5 0 -26 -11 -47 -24 -40 -24 -72 -74 -63 -97 7 -19 41 -18
70 2 l24 15 -5 -39 c-8 -56 13 -65 49 -21 34 40 43 69 34 105 -5 20 -10 24
-19 15 -21 -21 -26 -11 -9 18 15 28 17 28 40 13 24 -16 26 -15 53 17 55 66 46
130 -11 76 -20 -19 -30 -24 -31 -14 0 8 -3 27 -5 42 -6 33 22 137 36 137 5 0
7 -10 5 -22 -3 -17 2 -26 21 -35 22 -10 26 -9 40 13 10 15 14 36 12 56 -4 21
0 38 10 48 17 17 44 20 53 7 9 -13 21 79 14 103 -8 25 -50 36 -87 22 -26 -9
-28 -8 -28 14 0 23 -31 64 -49 64 -5 0 -14 -6 -20 -13z m-57 -322 c-4 -8 -10
-12 -15 -9 -11 6 -2 24 11 24 5 0 7 -7 4 -15z m-664 -124 c5 -11 10 -32 10
-48 -1 -24 -2 -25 -11 -10 -14 24 -28 21 -41 -10 l-12 -28 -4 37 c-6 64 33
104 58 59z m-116 -67 c3 -9 6 -23 6 -32 0 -21 -15 -5 -25 26 -7 25 9 31 19 6z
m-100 -113 c-6 -7 -33 32 -34 49 0 8 9 2 20 -15 10 -16 17 -31 14 -34z m900
-206 c-4 -8 -8 -15 -10 -15 -2 0 -4 7 -4 15 0 8 4 15 10 15 5 0 7 -7 4 -15z
m-546 -227 c14 -14 16 -48 2 -48 -10 0 -30 32 -30 49 0 14 13 14 28 -1z m-170
-25 c-3 -30 -25 -42 -34 -19 -9 22 2 46 21 46 12 0 15 -8 13 -27z m67 -33 c8
0 17 5 20 10 8 13 25 3 25 -16 0 -21 -37 -54 -55 -48 -10 4 -15 19 -14 48 1
22 3 33 6 24 2 -10 11 -18 18 -18z"/>
<path d="M1657 3052 c-10 -10 -16 -30 -15 -43 2 -19 -5 -28 -41 -46 -44 -22
-61 -38 -61 -57 0 -6 5 -5 12 2 7 7 23 12 38 12 24 0 24 0 -7 -20 -18 -11 -33
-27 -33 -37 0 -13 3 -14 12 -5 37 37 104 -16 94 -73 -8 -39 16 -77 35 -58 10
10 10 26 2 70 -10 57 -10 57 9 34 10 -13 21 -22 23 -19 8 8 -17 72 -36 94 -24
26 -24 35 2 78 35 60 8 114 -34 68z"/>
<path d="M1532 3040 c0 -14 2 -19 5 -12 2 6 2 18 0 25 -3 6 -5 1 -5 -13z"/>
<path d="M1813 2878 c-32 -35 -43 -63 -43 -106 0 -38 22 -72 48 -72 31 0 65
163 40 188 -16 16 -22 15 -45 -10z m25 -77 c3 -22 -13 -51 -28 -51 -14 0 -20
30 -10 56 12 30 34 27 38 -5z"/>
<path d="M1891 2719 c-23 -9 -53 -40 -46 -47 2 -2 21 6 44 17 22 12 47 21 55
21 8 0 18 5 21 10 8 13 -42 12 -74 -1z"/>
<path d="M1781 2643 c3 -46 15 -76 32 -79 14 -2 17 6 17 47 0 46 -2 49 -25 49
-18 0 -25 -5 -24 -17z"/>
<path d="M1717 2550 c8 -30 49 -70 73 -70 30 0 25 17 -17 55 -43 39 -64 45
-56 15z"/>
<path d="M1836 2537 c3 -10 9 -15 12 -12 3 3 0 11 -7 18 -10 9 -11 8 -5 -6z"/>
<path d="M1867 2492 c7 -29 78 -92 102 -92 34 0 34 21 0 56 -21 22 -42 34 -59
34 -14 0 -31 5 -37 11 -9 9 -10 7 -6 -9z"/>
<path d="M1826 2453 c15 -64 49 -107 64 -83 10 17 -5 58 -32 88 -29 30 -40 28
-32 -5z m43 -39 c3 -16 1 -17 -13 -5 -19 16 -21 34 -3 29 6 -3 14 -13 16 -24z"/>
<path d="M1790 2293 c0 -16 71 -77 108 -92 17 -7 32 -17 32 -22 0 -13 -12 -11
-34 6 -22 17 -36 19 -36 7 0 -5 12 -15 28 -22 22 -11 24 -14 9 -17 -13 -4 -16
-11 -11 -31 4 -15 11 -33 17 -39 5 -7 6 -13 3 -13 -4 0 -2 -9 4 -20 6 -11 18
-20 26 -20 9 0 12 5 8 11 -3 6 -1 15 7 19 10 7 10 12 0 23 -9 12 -9 16 1 20
10 3 8 10 -7 26 l-19 22 28 -7 c22 -5 27 -4 24 7 -3 8 2 22 10 32 14 16 14 19
2 27 -8 6 -30 10 -48 10 -39 0 -86 22 -124 58 -16 14 -28 21 -28 15z"/>
<path d="M2097 2205 c-26 -25 -35 -45 -19 -45 16 0 82 52 77 61 -10 15 -29 10
-58 -16z"/>
<path d="M1750 2203 c0 -5 5 -15 10 -23 8 -12 10 -11 10 8 0 12 -4 22 -10 22
-5 0 -10 -3 -10 -7z"/>
<path d="M1830 2101 c11 -22 30 -29 30 -11 0 5 -9 14 -21 20 -19 11 -20 10 -9
-9z"/>
<path d="M3770 1830 c0 -4 -9 -6 -21 -3 -12 3 -24 1 -28 -4 -3 -6 -17 -14 -30
-18 -16 -5 -21 -4 -17 4 5 7 -2 11 -18 11 -14 0 -26 -4 -26 -10 0 -5 -25 -10
-55 -10 -30 0 -55 -4 -55 -10 0 -5 -9 -10 -20 -10 -11 0 -20 -4 -20 -10 0 -5
-12 -10 -26 -10 -14 0 -33 -4 -43 -10 -10 -5 -29 -11 -42 -14 -13 -3 -35 -8
-49 -11 -14 -3 -37 -6 -52 -7 -18 -1 -28 -7 -29 -17 0 -12 -3 -11 -8 4 -6 14
-12 -7 -21 -70 -6 -49 -17 -106 -22 -125 -16 -58 -49 -120 -59 -114 -6 3 -15
-8 -22 -25 -6 -17 -19 -31 -28 -31 -8 0 -21 -11 -27 -25 -7 -16 -17 -23 -27
-19 -10 4 -21 -4 -32 -25 -13 -22 -23 -29 -37 -25 -13 4 -25 -2 -41 -21 -18
-23 -25 -26 -41 -17 -16 10 -23 6 -45 -20 -23 -28 -27 -29 -48 -17 -20 13 -24
12 -42 -10 -17 -21 -23 -23 -40 -13 -28 18 -45 15 -63 -13 -19 -28 -38 -32
-56 -10 -17 21 -37 19 -45 -5 -9 -27 -48 -26 -69 2 l-16 23 -16 -22 c-20 -28
-50 -29 -66 -3 -15 23 -38 27 -38 5 0 -8 -11 -17 -25 -21 -30 -7 -32 -20 -5
-34 28 -15 26 -42 -2 -38 -14 2 -23 10 -22 20 1 10 -8 18 -25 21 -14 3 -30 16
-36 28 -12 27 -35 37 -35 15 0 -24 -28 -19 -46 9 -20 30 -30 32 -37 6 -3 -13
1 -21 14 -24 11 -3 19 -13 19 -22 0 -11 -4 -13 -14 -8 -22 13 -66 70 -66 86 0
8 -7 17 -15 21 -9 3 -15 0 -15 -9 0 -22 -28 -18 -40 6 -10 17 -8 21 9 26 23 6
25 11 11 33 -7 12 -12 12 -22 2 -19 -19 -27 -15 -43 25 l-16 37 -16 -24 c-13
-19 -14 -28 -5 -53 7 -17 10 -33 7 -35 -8 -8 -25 10 -25 28 0 10 -4 22 -10 25
-6 3 -10 -4 -10 -17 1 -50 143 -152 279 -200 143 -49 220 -62 378 -61 83 0
164 4 180 8 15 3 25 3 21 0 -9 -9 -67 -22 -161 -38 -110 -18 -353 11 -452 53
-100 43 -138 64 -189 104 -33 25 -61 44 -64 41 -2 -2 11 -22 31 -45 36 -43 54
-105 36 -126 -15 -18 72 -104 137 -137 59 -30 160 -62 241 -76 65 -12 271 -16
318 -7 29 6 29 6 5 -4 -14 -6 -63 -18 -110 -25 l-85 -15 75 6 c162 12 358 69
530 154 47 24 87 45 90 49 3 3 17 13 31 21 50 28 114 73 117 81 2 5 10 9 18 9
8 0 17 6 20 14 3 7 21 22 40 32 19 10 34 22 34 26 0 5 6 8 14 8 7 0 19 7 26
15 7 8 21 15 31 15 10 0 25 10 34 23 8 13 38 34 65 47 28 13 50 27 50 31 0 4
25 20 55 34 30 15 59 33 66 41 6 8 15 14 20 14 5 0 23 14 41 30 17 17 35 31
39 31 5 1 15 2 22 3 6 0 12 8 12 16 0 8 16 24 35 37 19 12 58 45 87 72 39 38
53 60 58 90 8 47 -8 105 -37 135 -11 12 -27 31 -35 44 -13 18 -24 22 -69 22
-29 0 -55 4 -58 9 -8 13 -66 32 -66 21z m-1840 -591 c7 -11 9 -24 5 -27 -7 -7
-35 25 -35 40 0 16 19 8 30 -13z m40 -86 c0 -13 -3 -13 -15 -3 -8 7 -12 16 -9
21 8 13 24 1 24 -18z m67 -14 c17 -17 5 -43 -13 -28 -15 12 -19 39 -6 39 4 0
13 -5 19 -11z m331 -57 c3 -16 -2 -22 -17 -22 -24 0 -33 13 -25 35 9 23 38 14
42 -13z m110 -5 c2 -11 -3 -17 -17 -17 -23 0 -35 15 -26 31 10 15 39 6 43 -14z
m192 13 c0 -5 -4 -10 -10 -10 -5 0 -10 5 -10 10 0 6 5 10 10 10 6 0 10 -4 10
-10z m-100 -8 c0 -13 -12 -22 -22 -16 -10 6 -1 24 13 24 5 0 9 -4 9 -8z m-360
-18 c0 -17 -22 -14 -28 4 -2 7 3 12 12 12 9 0 16 -7 16 -16z m-203 -76 c16
-15 23 -33 23 -60 0 -44 -9 -47 -45 -15 -33 29 -47 97 -19 97 10 0 28 -10 41
-22z m142 -62 c36 -17 47 -40 33 -70 -10 -23 -14 -24 -44 -14 -50 16 -58 27
-58 70 0 36 2 39 23 33 12 -4 33 -12 46 -19z m192 -52 c13 -8 11 -62 -3 -71
-15 -9 -56 -5 -80 8 -12 7 -18 22 -18 46 l0 36 46 -7 c25 -3 50 -8 55 -12z
m307 -15 c-16 -11 -28 -27 -28 -35 0 -9 -4 -12 -10 -9 -5 3 -10 17 -10 30 0
23 7 26 65 33 6 1 -2 -8 -17 -19z m-133 -3 c17 -12 18 -18 7 -40 -10 -22 -18
-26 -57 -26 -39 0 -45 3 -51 25 -10 41 1 55 44 55 21 0 47 -6 57 -14z"/>
<path d="M1990 941 c0 -6 5 -13 10 -16 6 -3 10 1 10 9 0 9 -4 16 -10 16 -5 0
-10 -4 -10 -9z"/>
<path d="M2116 891 c-3 -5 1 -14 8 -20 16 -13 32 2 21 19 -8 12 -22 13 -29 1z"/>
<path d="M2294 849 c-3 -6 -2 -15 2 -19 12 -12 38 5 30 19 -9 14 -23 14 -32 0z"/>
<path d="M2465 840 c-11 -18 13 -36 31 -25 9 6 16 15 17 20 3 14 -40 18 -48 5z"/>
<path d="M1843 1328 c-19 -25 -23 -48 -8 -48 8 0 15 -6 16 -12 1 -7 5 3 9 22
9 38 0 59 -17 38z"/>
<path d="M2060 1196 c0 -8 7 -16 15 -20 17 -6 18 -4 9 18 -8 20 -24 21 -24 2z"/>
<path d="M2141 1166 c-9 -11 -8 -15 5 -20 22 -8 24 -8 24 8 0 21 -16 28 -29
12z"/>
<path d="M2235 1140 c-3 -5 1 -10 9 -10 9 0 16 5 16 10 0 6 -4 10 -9 10 -6 0
-13 -4 -16 -10z"/>
</g>
</svg>
