<?xml version="1.0" encoding="utf-8"?>
<!-- Generator: Adobe Illustrator 18.0.0, SVG Export Plug-In . SVG Version: 6.00 Build 0)  -->
<!DOCTYPE svg PUBLIC "-//W3C//DTD SVG 1.1//EN" "http://www.w3.org/Graphics/SVG/1.1/DTD/svg11.dtd">
<svg version="1.1" id="Layer_1" xmlns="http://www.w3.org/2000/svg" xmlns:xlink="http://www.w3.org/1999/xlink" x="0px" y="0px"
	 viewBox="0 0 1336.4 673.5" enable-background="new 0 0 1336.4 673.5" xml:space="preserve">
<g>
	<defs>
		<path id="SVGID_1_" d="M504.2,610.5H821c11.5,0,20.8-9.3,20.8-20.8V103.3c0-11.5-9.3-20.8-20.8-20.8H504.2
			c-11.5,0-20.8,9.3-20.8,20.8v486.5C483.5,601.2,492.8,610.5,504.2,610.5z"/>
	</defs>
	<clipPath id="SVGID_2_">
		<use xlink:href="#SVGID_1_"  overflow="visible"/>
	</clipPath>
	<g clip-path="url(#SVGID_2_)">
		<g id="DwivYw.tif_3_">
			
				<image overflow="visible" width="2268" height="2682" id="Layer_0_2_" xlink:href="52CF123E3F130897.png"  transform="matrix(0.2763 0 0 0.2763 394.9273 -52.8452)">
			</image>
		</g>
	</g>
</g>
<rect x="485.5" y="160.6" opacity="0.22" fill="#010101" width="356.4" height="97.4"/>
<g>
	<text transform="matrix(1 0 0 1 498.3515 230.5505)" fill="#FFFFFF" font-family="'HelveticaNeue-Bold'" font-size="58.8371">25</text>
	<circle fill="none" stroke="#FFFFFF" stroke-width="5" stroke-miterlimit="10" cx="580.8" cy="195.8" r="6.3"/>
</g>
<g opacity="0.62">
	<text transform="matrix(1 0 0 1 787.2031 226.2712)" fill="#FFFFFF" font-family="'AGaramondPro-Italic'" font-size="14.2">Artist</text>
</g>
<g>
	<text transform="matrix(1 0 0 1 726.0374 207.4529)" fill="#FFFFFF" font-family="'AGaramondPro-Italic'" font-size="16.4059">Painting Name</text>
</g>
<g>
	<defs>
		<path id="SVGID_3_" d="M84.2,610.5H401c11.5,0,20.8-9.3,20.8-20.8V103.3c0-11.5-9.3-20.8-20.8-20.8H84.2
			c-11.5,0-20.8,9.3-20.8,20.8v486.5C63.5,601.2,72.8,610.5,84.2,610.5z"/>
	</defs>
	<clipPath id="SVGID_4_">
		<use xlink:href="#SVGID_3_"  overflow="visible"/>
	</clipPath>
	<g clip-path="url(#SVGID_4_)">
		<g id="DwivYw.tif_2_">
			
				<image overflow="visible" width="2268" height="2682" id="Layer_0_3_" xlink:href="52CF123E3F130895.png"  transform="matrix(0.2763 0 0 0.2763 -25.0726 -52.8452)">
			</image>
		</g>
	</g>
</g>
<rect x="65.5" y="160.6" opacity="0.22" fill="#010101" width="356.4" height="97.4"/>
<g>
	<text transform="matrix(1 0 0 1 78.3515 230.5505)" fill="#FFFFFF" font-family="'HelveticaNeue-Bold'" font-size="58.8371">25</text>
	<circle fill="none" stroke="#FFFFFF" stroke-width="5" stroke-miterlimit="10" cx="160.8" cy="195.8" r="6.3"/>
</g>
<g opacity="0.62">
	<text transform="matrix(1 0 0 1 367.2032 226.2712)" fill="#FFFFFF" font-family="'AGaramondPro-Italic'" font-size="14.2">Artist</text>
</g>
<g>
	<text transform="matrix(1 0 0 1 306.0374 207.4529)" fill="#FFFFFF" font-family="'AGaramondPro-Italic'" font-size="16.4059">Painting Name</text>
</g>
<g>
	<defs>
		<path id="SVGID_5_" d="M931.7,610.5h316.7c11.5,0,20.8-9.3,20.8-20.8V103.3c0-11.5-9.3-20.8-20.8-20.8H931.7
			c-11.5,0-20.8,9.3-20.8,20.8v486.5C911,601.2,920.2,610.5,931.7,610.5z"/>
	</defs>
	<clipPath id="SVGID_6_">
		<use xlink:href="#SVGID_5_"  overflow="visible"/>
	</clipPath>
	<g clip-path="url(#SVGID_6_)">
		<g id="DwivYw.tif_1_">
			
				<image overflow="visible" width="2268" height="2682" id="Layer_0_1_" xlink:href="52CF123E3F130893.png"  transform="matrix(0.2763 0 0 0.2763 822.406 -52.8452)">
			</image>
		</g>
	</g>
</g>
<rect x="913" y="160.6" opacity="0.22" fill="#010101" width="356.4" height="97.4"/>
<g>
	<text transform="matrix(1 0 0 1 925.8301 230.5505)" fill="#FFFFFF" font-family="'HelveticaNeue-Bold'" font-size="58.8371">25</text>
	<circle fill="none" stroke="#FFFFFF" stroke-width="5" stroke-miterlimit="10" cx="1008.3" cy="195.8" r="6.3"/>
</g>
<g>
	<text transform="matrix(1 0 0 1 1166.8214 215.0101)" fill="#FFFFFF" font-family="'AGaramondPro-Italic'" font-size="12">Location: Toronto</text>
</g>
<g>
	<text transform="matrix(1 0 0 1 1162.9816 237.6077)" fill="#FFFFFF" font-family="'AGaramondPro-Italic'" font-size="12">Condition: Clouds</text>
</g>
<g>
	
		<text transform="matrix(1 8.533251e-04 -8.533251e-04 1 1159.5417 193.3759)" fill="#FFFFFF" font-family="'AGaramondPro-Italic'" font-size="12">February 22, 2019</text>
</g>
<path fill="#FFFFFF" d="M327.6,571.9H160.9c-8.6,0-15.5-6.9-15.5-15.5l0,0c0-8.6,6.9-15.5,15.5-15.5h166.7c8.6,0,15.5,6.9,15.5,15.5
	l0,0C343.1,565,336.1,571.9,327.6,571.9z"/>
<g>
	<text transform="matrix(1 0 0 1 213.675 560.2353)" fill="#848181" font-family="'HelveticaNeue-Medium'" font-size="10.8522">Where to?</text>
</g>
</svg>
